<svg width="100" height="100" viewBox="0 0 100 100" fill="none" xmlns="http://www.w3.org/2000/svg">
<path d="M72.9166 27.0833H72.9583M29.1666 8.33334H70.8333C82.3392 8.33334 91.6666 17.6607 91.6666 29.1667V70.8333C91.6666 82.3393 82.3392 91.6667 70.8333 91.6667H29.1666C17.6607 91.6667 8.33331 82.3393 8.33331 70.8333V29.1667C8.33331 17.6607 17.6607 8.33334 29.1666 8.33334ZM66.6666 47.375C67.1809 50.8427 66.5886 54.3842 64.974 57.4959C63.3594 60.6076 60.8048 63.1309 57.6734 64.707C54.5421 66.2831 50.9935 66.8317 47.5324 66.2747C44.0713 65.7178 40.874 64.0837 38.3951 61.6048C35.9163 59.126 34.2822 55.9286 33.7253 52.4676C33.1683 49.0065 33.7169 45.4579 35.293 42.3266C36.8691 39.1952 39.3924 36.6406 42.5041 35.026C45.6157 33.4114 49.1573 32.8191 52.625 33.3333C56.1622 33.8579 59.4369 35.5061 61.9654 38.0346C64.4939 40.5631 66.1421 43.8378 66.6666 47.375Z" stroke="#1E1E1E" stroke-width="4" stroke-linecap="round" stroke-linejoin="round"/>
</svg>
