<?xml version="1.0" encoding="UTF-8" standalone="no"?>
<!DOCTYPE svg PUBLIC "-//W3C//DTD SVG 1.1//EN" "http://www.w3.org/Graphics/SVG/1.1/DTD/svg11.dtd">
<svg width="100%" height="100%" viewBox="0 0 110 110" version="1.1" xmlns="http://www.w3.org/2000/svg" xmlns:xlink="http://www.w3.org/1999/xlink" xml:space="preserve" xmlns:serif="http://www.serif.com/" style="fill-rule:evenodd;clip-rule:evenodd;stroke-linejoin:round;stroke-miterlimit:2;">
    <g id="uber_bike" transform="matrix(0.101299,0,0,0.101299,7.42594,-15.5139)">
        <g>
            <g id="Layer">
                <g>
                    <g transform="matrix(1,0,0,1,598.415,719.838)">
                        <g>
                            <path d="M-256.057,247.398C-250.763,264.026 -248.083,281.383 -248.083,299.113C-248.083,393.25 -324.67,469.839 -418.808,469.839C-512.946,469.839 -589.535,393.25 -589.535,299.113C-589.535,204.975 -512.946,128.386 -418.808,128.386C-417.529,128.386 -416.251,128.4 -414.976,128.428L-384.43,-91.169L-429.828,-113.135C-440.123,-118.114 -444.433,-130.498 -439.452,-140.792C-434.475,-151.094 -422.09,-155.405 -411.793,-150.418L-353.506,-122.215C-353.039,-122.011 -352.582,-121.789 -352.136,-121.553L-332.933,-112.261C-333.272,-116.096 -332.726,-119.219 -331.239,-121.015C-290.194,-170.701 -196.783,-279.794 -180.781,-291.796C-164.779,-303.797 -104.772,-327.8 -76.769,-323.799C-48.765,-319.799 71.249,-155.779 59.248,-99.773C55.381,-81.714 32.207,-62.305 1.76,-43.84C49.157,-42.496 85.811,-33.186 85.811,-22.003C85.811,-11.675 54.792,-3.013 12.974,-0.642C13.056,1.282 12.868,3.248 12.383,5.211L-0.366,56.784L73.543,152.598C99.939,136.706 129.89,128.392 161.26,128.392C255.399,128.392 331.985,204.981 331.985,299.119C331.985,393.257 255.399,469.846 161.26,469.846C85.448,469.846 19.799,420.326 -1.925,349.5L-88.779,364.606C-90.076,364.861 -91.407,364.994 -92.755,364.994C-94.164,364.994 -95.59,364.849 -97.019,364.548C-97.469,364.454 -97.917,364.344 -98.361,364.22C-100.839,363.527 -103.09,362.407 -105.054,360.96L-244.398,263.688C-249.966,259.803 -253.038,253.675 -253.245,247.374C-254.194,247.385 -255.132,247.393 -256.057,247.398ZM-420.733,169.817C-491.151,170.85 -548.118,228.454 -548.118,299.113C-548.118,370.415 -490.11,428.422 -418.808,428.422C-347.508,428.422 -289.5,370.415 -289.5,299.113C-289.5,283.485 -292.232,268.273 -297.622,253.894C-297.628,253.882 -297.632,253.869 -297.636,253.858C-301.739,242.852 -307.331,232.478 -314.259,223.022C-320.559,214.34 -327.937,206.47 -336.251,199.55L-353.688,187.384C-361.982,182.525 -370.692,178.656 -379.75,175.796L-397.139,300.806C-398.579,311.168 -407.453,318.667 -417.623,318.667C-418.574,318.667 -419.534,318.598 -420.501,318.465C-431.83,316.892 -439.735,306.432 -438.16,295.103L-420.733,169.817ZM-345.252,-72.212L-370.497,109.275L-239.26,84.521C-255.663,39.4 -269.156,-4.834 -264.791,-15.762C-256.79,-35.725 -148.777,-75.77 -116.774,-99.773C-111.653,-114.374 -132.775,-143.778 -144.777,-154.979L-155.218,-159.06C-195.676,-128.901 -247.378,-92.081 -276.975,-77.773C-275.521,-72.975 -275.794,-67.639 -278.145,-62.768C-281.716,-55.37 -289.11,-51.058 -296.809,-51.058C-299.828,-51.058 -302.894,-51.722 -305.796,-53.121L-345.252,-72.212ZM-72.843,-5.367C-127.301,19.499 -177.621,37.685 -176.781,40.245C-175.82,43.156 -172.02,54.776 -166.999,70.927C-166.279,70.707 -165.538,70.524 -164.781,70.381L-40.594,46.921L-28.89,-0.423C-45.472,-1.184 -60.51,-2.934 -72.843,-5.367ZM-155.03,110.688C-140.65,160.188 -125.752,218.929 -132.775,228.306C-138.181,235.474 -167.8,241.036 -199.877,244.261L-105.64,310.043L-51.525,91.139L-155.03,110.688ZM-278.591,190.299C-275.704,189.324 -272.449,188.626 -268.792,188.262C-244.789,184.301 -216.786,184.301 -200.784,180.261C-206.698,167.3 -215.358,146.671 -224.468,123.527C-225.628,123.974 -226.845,124.323 -228.11,124.562L-340.881,145.836L-331.378,152.46C-324.247,156.692 -317.285,161.557 -310.749,166.887L-282.876,186.311C-281.226,187.461 -279.794,188.808 -278.591,190.299ZM-65.05,318.439L-9.201,308.724C-9.378,305.532 -9.467,302.327 -9.467,299.119C-9.467,253.061 8.656,209.944 40.86,178.04L-13.061,108.136L-65.05,318.439ZM39.317,342.327C57.261,393.268 105.649,428.429 161.26,428.429C232.561,428.429 290.569,370.422 290.569,299.119C290.569,227.817 232.561,169.809 161.26,169.809C139.164,169.809 117.998,175.251 99.068,185.69L177.577,287.467C182.007,293.21 183.11,300.854 180.481,307.617C177.851,314.384 171.874,319.273 164.725,320.515L39.317,342.327ZM66.42,211.175C44.311,234.918 31.95,266.016 31.95,299.119C31.95,299.934 31.958,300.748 31.973,301.562L123.818,285.586L66.42,211.175ZM-111.133,-462.095C-108.292,-457.894 -109.013,-452.294 -112.813,-448.933C-125.695,-437.492 -135.655,-433.411 -140.816,-432.531C-132.055,-417.689 -127.454,-400.087 -128.815,-381.325C-131.935,-337.72 -167.34,-302.676 -210.945,-299.955C-259.35,-296.955 -299.995,-333.119 -304.195,-379.805L-307.116,-378.845C-307.116,-378.845 -348.921,-377.405 -319.878,-455.334C-289.234,-516.581 -220.866,-524.742 -178.741,-512.461C-141.896,-501.94 -125.735,-483.537 -111.133,-462.095Z" style="fill:rgb(224,169,18);"/>
                        </g>
                    </g>
                    <g transform="matrix(0.20249,-0.128832,0.128832,0.20249,-511.238,650.321)">
                        <path d="M5371.66,1602.59L5371.66,2397.41C5371.66,2542.54 5253.82,2660.38 5108.69,2660.38L4582.74,2660.38C4437.61,2660.38 4319.77,2542.54 4319.77,2397.41L4319.77,1602.59C4319.77,1457.46 4437.61,1339.62 4582.74,1339.62L5108.69,1339.62C5253.82,1339.62 5371.66,1457.46 5371.66,1602.59Z" style="fill:rgb(6,193,103);"/>
                    </g>
                </g>
            </g>
        </g>
    </g>
</svg>
